<svg viewBox="0 0 569.18 371.47" xmlns="http://www.w3.org/2000/svg"><g fill="#00aec8"><path d="m166.95 246.98c2.21-24.6-17.47-46.26-42.57-46.26h-29.18c-7.36 0-13.38 6.02-13.38 13.38v143.99c0 7.36 6.02 13.38 13.38 13.38h48.92c33.04 0 62.01-24.35 65.3-57.22 3.1-30.96-15.38-57.71-42.47-67.27z"/><path d="m233.1 200.47h37.22c7.38 0 13.38 6 13.38 13.38v144.24c0 7.38-6 13.38-13.38 13.38h-37.22c-7.38 0-13.38-6-13.38-13.38v-144.23c0-7.38 6-13.38 13.38-13.38z"/><path d="m428.89 264.69c0-35.18-28.53-63.97-63.96-63.97h-50.84c-7.36 0-13.38 6.02-13.38 13.38v143.99c0 7.36 6.02 13.38 13.38 13.38h101.42c7.36 0 9.11-4.25 3.9-9.44l-36.03-35.83c26.33-8.12 45.51-32.48 45.51-61.51z"/><path d="m483.8 200.47h-29.42c-7.36 0-13.38 6.02-13.38 13.38v144.23c0 7.36 6.02 13.38 13.38 13.38h29.42c47.24 0 85.39-38.38 85.39-85.62s-38.14-85.37-85.39-85.37z"/><path d="m248.7 154.44h-17.53v-36.01c0-1.49-.54-2.76-1.61-3.77-1.05-1-2.28-1.5-3.66-1.5-1.57 0-2.88.51-3.92 1.51-1.03 1-1.56 2.27-1.56 3.76v40.92c0 1.48.51 2.74 1.52 3.75s2.27 1.52 3.75 1.52h23.01c1.48 0 2.73-.48 3.72-1.43 1.02-.95 1.54-2.18 1.54-3.62s-.52-2.73-1.54-3.7c-1-.94-2.26-1.42-3.72-1.42z"/><path d="m267.82 113.17c-1.57 0-2.88.51-3.92 1.51-1.03 1-1.56 2.27-1.56 3.76v40.92c0 1.48.5 2.73 1.47 3.74.99 1.01 2.29 1.53 3.86 1.53 1.42 0 2.68-.5 3.75-1.49 1.1-1 1.65-2.28 1.65-3.78v-40.92c0-1.49-.54-2.76-1.61-3.77-1.05-1-2.28-1.5-3.66-1.5z"/><path d="m317.45 113.17h-31.44c-1.46 0-2.7.45-3.71 1.34-1.03.91-1.56 2.14-1.56 3.65s.52 2.74 1.55 3.66c1 .92 2.25 1.38 3.72 1.38h10.17v36.16c0 1.49.53 2.75 1.56 3.76 1.03 1 2.35 1.51 3.91 1.51s2.96-.5 4.01-1.5c1.06-1.01 1.6-2.28 1.6-3.77v-36.16h10.17c1.46 0 2.7-.45 3.71-1.33 1.03-.92 1.56-2.14 1.56-3.65s-.52-2.73-1.55-3.67c-1-.92-2.25-1.38-3.72-1.38z"/><path d="m363.89 113.17h-31.44c-1.46 0-2.7.45-3.71 1.34-1.03.91-1.56 2.14-1.56 3.65s.52 2.74 1.55 3.66c1 .92 2.25 1.38 3.72 1.38h10.17v36.16c0 1.49.53 2.75 1.56 3.76 1.03 1 2.35 1.51 3.91 1.51s2.96-.5 4.01-1.5c1.06-1.01 1.6-2.28 1.6-3.77v-36.16h10.17c1.46 0 2.7-.45 3.71-1.33 1.03-.92 1.56-2.14 1.56-3.65s-.52-2.73-1.55-3.67c-1-.92-2.25-1.38-3.72-1.38z"/><path d="m405.1 154.44h-17.53v-36.01c0-1.49-.54-2.76-1.61-3.77-1.05-1-2.28-1.5-3.66-1.5-1.57 0-2.88.51-3.92 1.51-1.03 1-1.56 2.27-1.56 3.76v40.92c0 1.48.51 2.74 1.52 3.75s2.27 1.52 3.75 1.52h23.01c1.48 0 2.73-.48 3.72-1.43 1.02-.95 1.54-2.18 1.54-3.62s-.52-2.73-1.54-3.7c-1-.94-2.26-1.42-3.72-1.42z"/><path d="m447.72 154.59h-18.24v-11.21h15.05c1.46 0 2.71-.45 3.71-1.33 1.03-.91 1.55-2.12 1.55-3.58s-.52-2.74-1.53-3.7c-1-.94-2.26-1.42-3.73-1.42h-15.05v-10.15h18.24c1.46 0 2.7-.45 3.71-1.33 1.03-.92 1.56-2.12 1.56-3.58s-.52-2.74-1.53-3.69c-1-.95-2.26-1.43-3.73-1.43h-23.72c-1.48 0-2.74.51-3.75 1.52s-1.52 2.27-1.52 3.75v40.92c0 1.48.51 2.74 1.52 3.75s2.27 1.52 3.75 1.52h23.72c1.46 0 2.71-.47 3.72-1.38 1.03-.94 1.55-2.15 1.55-3.6 0-1.33-.51-2.52-1.52-3.54-1.01-1-2.27-1.51-3.74-1.51z"/><path d="m278.44 19.38c-1.7-1.06-4.66-1.14-4.66-1.14-1.71-.05-3.45-.33-5.16-.49-7.18-.67-14.36-1.32-21.54-1.92-7.47-.63-14.95-1.27-22.44-1.64-4.02-.2-7.87-.37-11.67 1.23-4.27 1.8-7.8 5.34-8.89 9.93 0 .02-4.66 19.72-8.84 37.39-11.98-38.72-48.89-65.16-90.35-62.56-26.98 1.69-48.8 13.36-65.51 34.38-12.86 16.17-25.28 32.69-38.01 48.96-1.74 2.22-1.85 3.66-.17 6.01 11.99 16.82 23.47 34.01 35.75 50.61 12.44 16.82 27.46 28.13 44.85 33.76v46.27c0 1.68 1.36 3.04 3.04 3.04h7.45c1.68 0 3.04-1.36 3.04-3.04v-43.13c8.32 1.23 17.1 1.3 26.33.18v29.55c0 1.68 1.36 3.04 3.04 3.04h7.45c1.68 0 3.04-1.36 3.04-3.04v-32.2c36.12-10.18 61.91-42.82 64.06-81.01 16.95-14.14 74.39-62.13 79.12-66.86 3.16-3.16 2.33-5.93.08-7.33zm-110.52 95.69c-11.01 23.05-29.26 36.15-54.91 38.21-16.67 1.34-31.54-3.69-44.59-14.04-11.11-8.81-14.19-22.1-8.21-34.64 5.89-12.36 18.66-18.9 32.08-15.75 16.55 3.89 33.28 5.34 50.16 4.17 9.54-.66 19-2.4 28.5-3.65.61-.08 1.22-.14 2.39-.28.31 9.35-1.59 17.95-5.42 25.97z"/></g></svg>